<svg width="46" height="31" viewBox="0 0 46 31" fill="none" xmlns="http://www.w3.org/2000/svg">
<path d="M46.0001 23.25C46.0001 27.5301 43.6237 31 38.9546 31H7.95464C3.28561 31 0.90918 27.5301 0.90918 23.25V7.75C0.90918 3.46989 3.28561 0 7.95464 0H38.9546C43.6237 0 46.0001 3.46989 46.0001 7.75V23.25Z" fill="#128807"/>
<path d="M41.1668 16.0561L23.5602 28.428L5.95288 16.0561L23.5602 3.68433L41.1668 16.0561Z" fill="#F9CB38"/>
<path fill-rule="evenodd" clip-rule="evenodd" d="M30.5071 18.2119C29.7053 20.9363 27.1965 23.0105 24.3557 23.2923C20.5603 23.6721 17.2398 21.2597 16.4324 17.5306C16.1934 16.4347 16.2239 15.2972 16.5212 14.2157C16.6318 14.0959 16.7847 14.067 16.9369 14.0459C18.0469 13.8908 19.1691 13.8419 20.2884 13.9C21.4826 13.9677 22.6669 14.1333 23.8182 14.4588C24.9997 14.7934 26.1439 15.2302 27.2239 15.8108C28.0369 16.2423 28.8133 16.7395 29.5454 17.2974C29.7934 17.4897 30.0463 17.6785 30.2845 17.8835C30.3909 17.9751 30.4747 18.0738 30.5071 18.2119Z" fill="#002776"/>
<path fill-rule="evenodd" clip-rule="evenodd" d="M16.9189 13.1128C17.8285 11.0802 19.3623 9.72675 21.4823 9.09125C25.7518 7.81109 30.132 10.6328 30.7668 15.0334C30.8654 15.7133 30.8696 16.3953 30.7654 17.0766C30.6576 17.1167 30.5773 17.0597 30.5033 16.9984C29.7295 16.3661 28.9039 15.8 28.0353 15.306C27.3664 14.9264 26.6714 14.5949 25.9554 14.314C25.8286 14.264 25.6694 14.238 25.6257 14.0682C25.6715 13.9864 25.7293 13.9153 25.7983 13.849C25.823 13.8237 25.8589 13.799 25.8258 13.7567C25.8145 13.7434 25.7913 13.7434 25.7716 13.7455C25.7187 13.7511 25.7258 13.7877 25.7279 13.8265C25.7321 13.9526 25.6588 14.0336 25.5623 14.0985C25.3911 14.1372 25.2269 14.0858 25.0882 14.0118C24.6908 13.8032 24.2512 13.7321 23.8305 13.6158C23.1746 13.4376 22.5011 13.3368 21.8289 13.2319C21.2925 13.1464 20.7525 13.0848 20.2106 13.0473C19.7174 13.0127 19.2151 13.0177 18.7184 13.0515C18.1766 13.0895 17.6334 13.1276 17.0944 13.1924C17.0606 13.1976 17.026 13.1928 16.9948 13.1787C16.9637 13.1646 16.9373 13.1417 16.9189 13.1128Z" fill="#002776"/>
<path fill-rule="evenodd" clip-rule="evenodd" d="M25.6314 14.0238C25.6286 14.1097 25.7054 14.0985 25.7519 14.1168C27.5714 14.8244 29.2633 15.8239 30.7612 17.0759C30.7183 17.4625 30.6327 17.8431 30.5062 18.2109C29.6248 17.4796 28.7223 16.7828 27.724 16.2135C24.5683 14.4162 21.1893 13.7039 17.5771 14.0858C17.2248 14.1217 16.8725 14.1696 16.5203 14.2126C16.6112 13.8314 16.7267 13.4573 16.9162 13.1107C19.5533 12.7549 22.1447 12.9571 24.6874 13.7441C25.003 13.842 25.3038 13.9998 25.6406 14.0294L25.6314 14.0217" fill="#FEFEFE"/>
<path fill-rule="evenodd" clip-rule="evenodd" d="M28.9144 18.5642C28.7024 18.5417 28.9328 18.8017 28.7186 18.796C28.5319 18.7932 28.522 18.6439 28.4304 18.5607C28.5009 18.4875 28.6256 18.4727 28.665 18.3585C28.6918 18.479 28.8052 18.5044 28.9144 18.5642Z" fill="#D9DFEA"/>
<path fill-rule="evenodd" clip-rule="evenodd" d="M20.9139 19.8673C20.7145 19.8906 20.8815 20.1076 20.7145 20.1111C20.5462 20.1146 20.4595 19.9899 20.4257 19.861C20.4137 19.8243 20.5757 19.7426 20.6554 19.682C20.6652 19.8095 20.7977 19.8039 20.9139 19.8673Z" fill="#E9ECF3"/>
<path fill-rule="evenodd" clip-rule="evenodd" d="M23.5532 19.4757C23.2763 19.6546 23.4997 19.2502 23.3369 19.2897C23.3898 19.2051 23.5391 19.2249 23.549 19.0952C23.6194 19.1685 23.6793 19.253 23.7913 19.2685C23.6314 19.2467 23.8054 19.6018 23.5532 19.4757Z" fill="#EDEFF5"/>
<path fill-rule="evenodd" clip-rule="evenodd" d="M17.8322 14.7279C17.766 14.854 17.716 14.9949 17.5152 14.9104C17.4123 14.8674 17.5222 14.7265 17.3989 14.7131L17.6272 14.5123L17.6765 14.6103C17.6948 14.6941 17.8618 14.5828 17.8322 14.7279Z" fill="#F0F2F6"/>
<path fill-rule="evenodd" clip-rule="evenodd" d="M18.471 17.7896C18.366 17.8227 18.4414 18.0989 18.216 17.9784C18.1934 17.9672 18.0948 18.0214 18.1131 17.9897C18.1723 17.8742 18.0398 17.8178 18.0603 17.7255C18.1836 17.7791 18.1765 17.5536 18.3026 17.6142C18.3118 17.6212 18.3118 17.6494 18.3181 17.6677C18.3315 17.7551 18.502 17.6459 18.471 17.7896Z" fill="#ECEFF4"/>
<path fill-rule="evenodd" clip-rule="evenodd" d="M17.3628 18.6059C17.1465 18.6812 17.3078 18.4199 17.1838 18.422C17.2416 18.3734 17.3064 18.2825 17.3642 18.286C17.4332 18.2895 17.4967 18.3748 17.5601 18.4234C17.4657 18.4551 17.565 18.7108 17.3628 18.6059Z" fill="#D9DFEA"/>
<path fill-rule="evenodd" clip-rule="evenodd" d="M25.7231 21.0982C25.4941 21.2025 25.7168 20.8946 25.5639 20.9348C25.5484 20.8171 25.7393 20.8883 25.7154 20.7643L25.9218 20.9299C25.838 20.9679 25.9218 21.2074 25.7231 21.0982Z" fill="#D8DEEA"/>
<path fill-rule="evenodd" clip-rule="evenodd" d="M27.1889 20.9284C26.9993 21.0073 27.1156 20.7522 27.0134 20.7269C27.0825 20.6825 27.155 20.6353 27.2227 20.5895C27.2283 20.6938 27.3713 20.6557 27.3868 20.748C27.2805 20.7543 27.3911 20.984 27.1889 20.9284ZM28.5064 19.9801C28.2908 20.0893 28.45 19.8025 28.3267 19.8145C28.3514 19.7229 28.493 19.7574 28.5014 19.6517L28.7036 19.8032C28.5803 19.7997 28.7318 20.1019 28.5064 19.9801Z" fill="#DCE1EC"/>
<path fill-rule="evenodd" clip-rule="evenodd" d="M19.7787 18.6655C19.5532 18.793 19.7005 18.5077 19.5962 18.502C19.6068 18.397 19.766 18.4421 19.773 18.3308C19.7942 18.4337 19.9309 18.4041 19.9604 18.4964C19.8259 18.4766 20.0175 18.8 19.7787 18.6655Z" fill="#D4DAE7"/>
<path fill-rule="evenodd" clip-rule="evenodd" d="M20.6927 16.5247C20.5652 16.5162 20.7287 16.3154 20.5723 16.3281C20.599 16.2154 20.7195 16.2387 20.7857 16.1802C20.8196 16.2513 20.9154 16.2675 20.9203 16.3697C20.9316 16.5564 20.766 16.4599 20.6927 16.5247Z" fill="#F2F4F7"/>
<path fill-rule="evenodd" clip-rule="evenodd" d="M24.4056 18.0126C24.2105 18.1246 24.3133 17.8745 24.2231 17.847L24.4056 17.6927C24.4098 17.797 24.6092 17.7738 24.5529 17.8541C24.5191 17.902 24.6283 18.1211 24.4056 18.0126Z" fill="#E6E9F1"/>
<path fill-rule="evenodd" clip-rule="evenodd" d="M23.5319 17.386C23.3093 17.4086 23.539 17.2064 23.3945 17.2113C23.4509 17.1585 23.5051 17.0683 23.5686 17.0626C23.6235 17.057 23.6869 17.1465 23.7468 17.1958C23.6686 17.2712 23.6806 17.4656 23.5319 17.386Z" fill="#EAEDF3"/>
<path fill-rule="evenodd" clip-rule="evenodd" d="M28.9373 19.0304C28.9831 19.1516 29.0733 19.1678 29.1437 19.2108C29.0719 19.2918 29.0437 19.4158 28.8943 19.4158C28.7414 19.4172 28.845 19.3009 28.8105 19.2467C28.7252 19.1114 29.0402 19.2256 28.9373 19.0304Z" fill="#E4E8F0"/>
<path fill-rule="evenodd" clip-rule="evenodd" d="M27.342 21.4849C27.2885 21.5645 27.3251 21.6406 27.1828 21.6434C27.02 21.6462 27.0722 21.5272 27.0651 21.4905C27.0517 21.4299 27.1447 21.3722 27.1983 21.3842C27.2448 21.3926 27.335 21.4187 27.342 21.4849Z" fill="#CED5E4"/>
<path fill-rule="evenodd" clip-rule="evenodd" d="M19.7302 19.2277C19.6139 19.2411 19.7104 19.3933 19.5632 19.3884C19.4286 19.3841 19.4483 19.2932 19.4335 19.2383C19.4103 19.1615 19.5237 19.1636 19.5491 19.1058C19.6026 19.1432 19.6569 19.1805 19.7302 19.2277Z" fill="#DAE0EB"/>
<path fill-rule="evenodd" clip-rule="evenodd" d="M27.0266 20.0308C27.0764 19.9942 27.1274 19.9585 27.1795 19.9237C27.1837 20.0019 27.3521 19.9568 27.2957 20.0569C27.2725 20.097 27.3296 20.2069 27.1837 20.1971C27.0527 20.1879 27.0837 20.0963 27.0266 20.0308Z" fill="#D8DEE9"/>
<path fill-rule="evenodd" clip-rule="evenodd" d="M26.4912 20.2727C26.4659 20.4115 26.387 20.434 26.3003 20.4502C26.1531 20.4749 26.2637 20.3643 26.2397 20.322C26.1777 20.2163 26.3341 20.2368 26.3525 20.1677C26.3933 20.2213 26.487 20.2199 26.4912 20.2727Z" fill="#CBD2E3"/>
<path fill-rule="evenodd" clip-rule="evenodd" d="M25.6668 15.7039C25.6175 15.7271 25.683 15.8448 25.5773 15.811C25.497 15.7835 25.3983 15.7454 25.4054 15.6468C25.4082 15.6088 25.504 15.5771 25.5576 15.5439C25.5667 15.6151 25.7189 15.5919 25.6668 15.7039Z" fill="#D1D8E6"/>
<path fill-rule="evenodd" clip-rule="evenodd" d="M29.6538 18.7946C29.5213 18.8468 29.5812 18.7376 29.558 18.7059C29.4692 18.5854 29.6446 18.603 29.6538 18.5311C29.708 18.5671 29.8137 18.6079 29.8095 18.6389C29.8064 18.6792 29.789 18.717 29.7605 18.7456C29.7319 18.7742 29.6941 18.7915 29.6538 18.7946Z" fill="#DADFEA"/>
<path fill-rule="evenodd" clip-rule="evenodd" d="M22.8415 17.7196C22.8415 17.8013 23.0063 17.7689 22.9507 17.8711C22.9281 17.9127 22.976 18.024 22.8619 18.0007C22.7752 17.9831 22.6879 17.9324 22.6851 17.8464C22.6851 17.8063 22.7851 17.7633 22.8415 17.7196Z" fill="#CAD2E2"/>
<path fill-rule="evenodd" clip-rule="evenodd" d="M25.0962 20.2681C25.0314 20.2378 25.0285 20.1526 25.0328 20.1117C25.0398 20.0574 25.1124 19.9842 25.1744 20.0138C25.2124 20.0321 25.3202 20.0215 25.2942 20.1201C25.2702 20.2146 25.1758 20.2279 25.0962 20.2681Z" fill="#D0D7E5"/>
<path fill-rule="evenodd" clip-rule="evenodd" d="M27.8228 20.1451C27.8256 20.1444 27.8749 20.076 27.9305 20.0746C27.9707 20.0732 28.0116 20.1563 28.0545 20.2028C27.9968 20.219 28.0461 20.3254 27.932 20.324C27.8291 20.3219 27.8291 20.2754 27.8228 20.1451Z" fill="#EFF2F6"/>
<path fill-rule="evenodd" clip-rule="evenodd" d="M23.2897 18.3609C23.2707 18.437 23.2707 18.4842 23.2031 18.4828C23.134 18.4814 23.1002 18.456 23.1016 18.3855C23.1016 18.3299 23.1382 18.2911 23.1798 18.2947C23.2277 18.2982 23.2961 18.3116 23.2897 18.3609Z" fill="#CCD4E3"/>
<path fill-rule="evenodd" clip-rule="evenodd" d="M18.9692 17.2644C19.003 17.301 19.0418 17.3299 19.0566 17.3673C19.0692 17.3983 19.0495 17.4455 19.0058 17.4504C18.9572 17.4546 18.9051 17.4532 18.8896 17.3926C18.8755 17.3334 18.9269 17.3123 18.9692 17.2644Z" fill="#E0E5EE"/>
<path fill-rule="evenodd" clip-rule="evenodd" d="M18.4712 17.7904C18.4522 17.7094 18.3268 17.7608 18.3184 17.6678C18.3451 17.7383 18.5544 17.5812 18.4712 17.7904Z" fill="#7085B1"/>
<path fill-rule="evenodd" clip-rule="evenodd" d="M17.8322 14.7284C17.8167 14.6417 17.6836 14.7101 17.6765 14.6107C17.7139 14.6699 17.9027 14.5297 17.8322 14.7284Z" fill="#5C75A7"/>
<path fill-rule="evenodd" clip-rule="evenodd" d="M25.6456 14.0316C25.659 13.9781 25.702 13.8907 25.6851 13.8745C25.4554 13.6702 25.7619 13.6357 25.8077 13.5941C25.8915 13.5131 25.8781 13.8548 26.0993 13.6385C25.9803 13.9027 25.821 13.9788 25.6379 14.0239L25.6456 14.0316Z" fill="#E7EAF2"/>
<path fill-rule="evenodd" clip-rule="evenodd" d="M18.8544 13.8118C18.6304 13.79 18.8298 13.4983 18.7812 13.3292C18.7206 13.1108 18.8798 13.1136 19.0348 13.1129C19.275 13.1115 19.411 13.213 19.411 13.4666C19.4103 13.716 19.2948 13.8147 18.8544 13.8118Z" fill="#15A24A"/>
<path fill-rule="evenodd" clip-rule="evenodd" d="M27.4147 15.2199C27.3654 15.3707 27.1829 15.4651 27.1519 15.6511C27.1491 15.6757 27.0786 15.6708 27.0652 15.5989C27.0089 15.2622 27.0061 15.2629 26.7573 15.4432C26.7376 15.458 26.7031 15.4714 26.6841 15.4651C26.6474 15.4489 26.6326 15.4122 26.6545 15.3707C26.7369 15.21 26.8144 15.0452 26.9067 14.8895C26.9687 14.7866 27.0441 14.8726 27.1047 14.9021C27.2378 14.9677 27.402 15.005 27.4147 15.2199Z" fill="#13A248"/>
<path fill-rule="evenodd" clip-rule="evenodd" d="M28.0452 15.7691C27.9156 15.8212 27.8529 15.7233 27.7697 15.6881C27.7134 15.6641 27.6605 15.6416 27.6225 15.7043C27.5809 15.7705 27.6225 15.8085 27.6795 15.8381C27.7232 15.86 27.7697 15.8769 27.8021 15.9114C27.8592 15.9713 28.0382 15.9551 27.9656 16.0826C27.9085 16.1841 27.8127 16.0657 27.7493 16.0284C27.6401 15.9614 27.4238 15.9248 27.447 15.8085C27.483 15.6218 27.5894 15.4189 27.731 15.2907C27.8444 15.1878 27.9698 15.3823 28.0973 15.4309C28.1523 15.4513 28.246 15.4697 28.2298 15.5563C28.2143 15.6458 28.1481 15.5937 28.0973 15.5817C27.9783 15.5542 27.8627 15.3527 27.769 15.4922C27.7127 15.5753 27.9445 15.6099 28.0177 15.7015C28.029 15.7148 28.0318 15.7332 28.0452 15.7691ZM29.5635 16.7653C29.5846 16.9302 29.5177 17.0422 29.3451 17.014C29.1661 16.9844 29.0302 16.8752 28.9992 16.6794C28.9963 16.6596 29.0203 16.6195 29.04 16.6138C29.0514 16.6101 29.0634 16.6089 29.0753 16.6104C29.0871 16.6118 29.0985 16.6158 29.1087 16.6221C29.1188 16.6284 29.1275 16.6369 29.134 16.6469C29.1405 16.6569 29.1447 16.6682 29.1464 16.6801C29.169 16.8146 29.2394 16.8745 29.381 16.8773C29.4085 16.6568 29.0104 16.5561 29.2394 16.3271C29.3543 16.2122 29.4945 16.3074 29.5945 16.3997C29.6868 16.4835 29.7995 16.5758 29.6311 16.6956C29.6072 16.6829 29.5748 16.6625 29.5572 16.6765C29.5212 16.7005 29.5565 16.735 29.5635 16.7653Z" fill="#11A147"/>
<path fill-rule="evenodd" clip-rule="evenodd" d="M24.6974 14.6668C24.6135 14.6196 24.6178 14.5745 24.6311 14.5251C24.6579 14.4202 24.6037 14.3652 24.5078 14.3356C24.412 14.3046 24.338 14.3088 24.312 14.4286C24.3028 14.4822 24.2746 14.5195 24.2162 14.4998C24.1485 14.4751 24.1823 14.4202 24.195 14.38C24.2218 14.2877 24.2458 14.1947 24.288 14.1066C24.3261 14.0186 24.2993 13.8572 24.4381 13.8678C24.5853 13.8784 24.7446 13.9136 24.8566 14.0355C24.9066 14.089 24.927 14.1813 24.8862 14.2215C24.7671 14.3441 24.777 14.5174 24.6974 14.6668Z" fill="#0FA046"/>
<path fill-rule="evenodd" clip-rule="evenodd" d="M20.3495 13.7701C20.1219 13.8561 19.9423 13.806 19.7668 13.8096C19.6872 13.8117 19.6802 13.7518 19.6802 13.6912C19.6849 13.624 19.6868 13.5569 19.6858 13.4897C19.6943 13.1184 19.826 13.0233 20.191 13.1269C20.2318 13.1381 20.2706 13.1452 20.2734 13.191C20.2734 13.2544 20.2276 13.2657 20.1712 13.2642C20.1633 13.2624 20.1543 13.2617 20.1445 13.2621C20.0353 13.2889 19.8394 13.1656 19.8359 13.3291C19.8317 13.4545 20.0451 13.3657 20.1543 13.408C20.1689 13.415 20.1877 13.4277 20.2107 13.446C20.1417 13.5707 20.0268 13.501 19.938 13.5158C19.8852 13.5242 19.8162 13.501 19.8084 13.5869C19.7985 13.6884 19.869 13.6835 19.938 13.6905C20.0557 13.7046 20.1832 13.6602 20.3495 13.7701Z" fill="#0B9F43"/>
<path fill-rule="evenodd" clip-rule="evenodd" d="M18.4791 13.8238C18.3565 13.7971 18.3734 13.7266 18.3523 13.6773C18.3157 13.5864 18.2431 13.5864 18.1635 13.5927C18.0726 13.6012 18.0233 13.6364 18.031 13.7372C18.0367 13.7865 18.0564 13.8661 17.9648 13.8548C17.8859 13.845 17.9084 13.7682 17.9042 13.716C17.8972 13.6308 17.8887 13.5434 17.8972 13.4589C17.9084 13.3645 17.8182 13.22 17.9542 13.1862C18.0944 13.1496 18.2565 13.1235 18.4023 13.1933C18.4657 13.2236 18.5157 13.2975 18.4925 13.3574C18.4389 13.5082 18.4812 13.6611 18.4791 13.8238Z" fill="#079D3F"/>
<path fill-rule="evenodd" clip-rule="evenodd" d="M16.9917 13.5835C17.0142 13.3926 17.0981 13.2376 17.3073 13.2446C17.5081 13.251 17.6152 13.3905 17.6152 13.5913C17.6152 13.7906 17.5222 13.928 17.3102 13.9266C17.0946 13.9252 17.0213 13.7688 16.9917 13.5835Z" fill="#15A24A"/>
<path fill-rule="evenodd" clip-rule="evenodd" d="M30.4044 17.162C30.3847 17.3515 30.291 17.4945 30.0747 17.5135C29.8753 17.5297 29.7696 17.4156 29.7541 17.2282C29.7365 17.0387 29.9225 16.8576 30.112 16.859C30.2783 16.8604 30.4002 16.9809 30.4044 17.162Z" fill="#11A147"/>
<path fill-rule="evenodd" clip-rule="evenodd" d="M26.4488 14.957C26.608 15.0852 26.415 15.1698 26.4079 15.2776C26.2755 15.2163 26.1099 15.2409 26.0028 15.1247C25.8887 15.0007 25.9098 14.8605 25.9845 14.7238C26.0669 14.5794 26.1938 14.5174 26.3495 14.5723C26.4918 14.6231 26.5982 14.7189 26.5291 14.8992C26.4199 14.919 26.3304 14.7752 26.1768 14.8718C26.279 14.919 26.4016 14.8534 26.4488 14.957Z" fill="#0C9F43"/>
<path fill-rule="evenodd" clip-rule="evenodd" d="M22.6164 13.5059C22.5234 13.6151 22.455 13.5729 22.3909 13.5743C22.3289 13.5743 22.2627 13.5228 22.1859 13.5869C22.2549 13.6997 22.4219 13.6271 22.4867 13.7391C22.4776 13.7553 22.4733 13.7772 22.4614 13.7884C22.3684 13.8617 22.2197 13.6842 22.1619 13.8307C22.1091 13.9568 22.2479 13.9132 22.3078 13.9343C22.3754 13.9611 22.4593 13.9512 22.541 14.0428C22.3515 14.1259 22.1253 14.0872 22.0471 13.9956C21.9238 13.8512 22.0105 13.5947 22.1042 13.4665C22.2148 13.315 22.417 13.4629 22.6164 13.5059Z" fill="#19A44D"/>
<path fill-rule="evenodd" clip-rule="evenodd" d="M23.8176 14.119C23.6576 14.1021 23.4759 13.9894 23.4301 14.2529C23.4287 14.2613 23.373 14.2733 23.3561 14.262C23.3371 14.2514 23.3265 14.212 23.33 14.1894C23.3716 14.0225 23.3927 13.8435 23.4667 13.6934C23.5527 13.5244 23.6985 13.6674 23.819 13.6836C23.9627 13.7026 24.0423 13.79 24.0268 13.9414C24.0127 14.0718 23.9141 14.107 23.8176 14.119Z" fill="#0D9F44"/>
<path fill-rule="evenodd" clip-rule="evenodd" d="M25.7233 14.523C25.7078 14.735 25.6035 14.8816 25.3914 14.8879C25.2019 14.895 25.0955 14.7618 25.0997 14.573C25.1054 14.3687 25.2047 14.2207 25.4252 14.2144C25.6274 14.2073 25.7056 14.3433 25.7233 14.523Z" fill="#0FA046"/>
<path fill-rule="evenodd" clip-rule="evenodd" d="M20.9736 13.7582C20.9504 13.8082 20.9313 13.8794 20.8644 13.8632C20.7481 13.8357 20.8003 13.7237 20.7721 13.6504C20.6861 13.5666 20.7087 13.6821 20.6819 13.7033C20.6721 13.7554 20.696 13.835 20.6256 13.8456C20.5389 13.8561 20.5593 13.773 20.5614 13.7237C20.5685 13.6208 20.5699 13.513 20.5981 13.4144C20.6227 13.3298 20.5333 13.1741 20.7016 13.1727C20.8503 13.172 20.8179 13.3235 20.8369 13.4144C20.8566 13.5187 20.8672 13.5631 20.9525 13.4595C21.0405 13.4362 21.0589 13.5003 21.0793 13.5623C21.0906 13.6525 21.0504 13.7152 20.9736 13.7582Z" fill="#0EA044"/>
<path fill-rule="evenodd" clip-rule="evenodd" d="M28.4779 16.3461C28.53 16.3461 28.5829 16.4152 28.6336 16.356C28.6724 16.3116 28.6378 16.2679 28.6033 16.232C28.577 16.2052 28.5516 16.1775 28.5272 16.1489C28.4554 16.0622 28.3546 15.9791 28.4539 15.8537C28.5441 15.7388 28.6491 15.767 28.7534 15.8396C28.7724 15.8762 28.7661 15.9114 28.7463 15.9446C28.6695 16.065 28.8126 16.1383 28.8097 16.2412C28.8316 16.3377 28.8457 16.4349 28.7393 16.4906C28.6068 16.561 28.5047 16.4962 28.4074 16.4117C28.3969 16.356 28.4173 16.3285 28.4779 16.3461Z" fill="#10A146"/>
<path fill-rule="evenodd" clip-rule="evenodd" d="M26.449 14.9578C26.3948 14.9959 26.2856 14.8726 26.2891 14.9656C26.2961 15.1305 26.2137 15.1157 26.1369 15.0671C26.0333 15.0029 26.0277 14.893 26.0932 14.7916C26.1566 14.6922 26.2461 14.6345 26.3546 14.7155C26.4208 14.7641 26.4709 14.8374 26.5279 14.9001L26.449 14.9578Z" fill="#ECF7F0"/>
<path fill-rule="evenodd" clip-rule="evenodd" d="M21.0205 13.5914C21.0002 13.5478 20.9776 13.5052 20.9529 13.4639C20.9775 13.4012 21.0001 13.3378 21.0297 13.2772C21.0564 13.2202 21.1029 13.1884 21.1685 13.2096C21.2417 13.2342 21.2361 13.2906 21.2319 13.3498C21.2164 13.5222 21.2021 13.6945 21.1889 13.8669C21.086 13.9324 21.06 13.8726 21.0431 13.7838C21.0304 13.7197 21.0635 13.6506 21.0205 13.5914Z" fill="#17A34C"/>
<path fill-rule="evenodd" clip-rule="evenodd" d="M28.812 16.2393C28.7486 16.1745 28.681 16.1132 28.6218 16.0442C28.5527 15.9625 28.5795 15.9124 28.6824 15.899C28.831 15.9322 28.9219 16.004 28.8782 16.1745C28.8576 16.1961 28.8355 16.2177 28.812 16.2393Z" fill="#D7EFE0"/>
<path fill-rule="evenodd" clip-rule="evenodd" d="M28.878 16.1743C28.8097 16.0855 28.7913 15.9587 28.6821 15.8988L28.7554 15.8375C28.8738 15.9214 29.0901 15.9693 28.878 16.1743Z" fill="#2BAB5B"/>
<path fill-rule="evenodd" clip-rule="evenodd" d="M29.5637 16.7645C29.5545 16.7589 29.5426 16.7561 29.5383 16.7483C29.482 16.644 29.2953 16.5503 29.3587 16.458C29.4383 16.3467 29.5214 16.4785 29.5651 16.5736C29.5848 16.6137 29.6088 16.6532 29.6313 16.6948C29.6078 16.7183 29.5853 16.7415 29.5637 16.7645Z" fill="#E6F5EC"/>
<path fill-rule="evenodd" clip-rule="evenodd" d="M28.4779 16.3459C28.4563 16.3679 28.4329 16.39 28.4075 16.4121C28.3779 16.391 28.337 16.3762 28.318 16.3459C28.2821 16.2775 28.1792 16.1866 28.2983 16.1331C28.3983 16.0852 28.3983 16.2127 28.4307 16.2747C28.4441 16.3008 28.461 16.3226 28.4779 16.3459Z" fill="#29AA59"/>
<path fill-rule="evenodd" clip-rule="evenodd" d="M21.0203 13.59C21.1232 13.6301 21.069 13.7161 21.0704 13.7802C21.076 13.8683 21.107 13.8979 21.1894 13.8669C21.0175 14.0331 21.0394 13.8112 20.9731 13.7619C20.9908 13.7034 21.0041 13.6463 21.0203 13.59Z" fill="#DDF1E4"/>
<path fill-rule="evenodd" clip-rule="evenodd" d="M20.6787 13.7026V13.4757C20.7759 13.5067 20.7788 13.575 20.7689 13.6497L20.6787 13.7026Z" fill="#6FC690"/>
<path fill-rule="evenodd" clip-rule="evenodd" d="M18.9226 13.4708C18.9325 13.3679 18.8832 13.234 19.0586 13.2453C19.1868 13.253 19.2798 13.3045 19.2869 13.451C19.2939 13.6088 19.2016 13.673 19.0558 13.6835C18.8705 13.6983 18.9459 13.5525 18.9226 13.4708Z" fill="#F5FBF7"/>
<path fill-rule="evenodd" clip-rule="evenodd" d="M27.0478 15.0215C27.121 15.0616 27.2331 15.0694 27.257 15.1779C27.269 15.2343 27.2204 15.2716 27.1703 15.2554C27.0773 15.2272 26.9541 15.2258 26.9414 15.0948C26.9379 15.0567 26.9787 15.0088 27.0478 15.0215Z" fill="#EFF8F3"/>
<path fill-rule="evenodd" clip-rule="evenodd" d="M24.7628 14.1534C24.7438 14.2266 24.6924 14.252 24.6332 14.2302C24.5536 14.2013 24.4254 14.233 24.4239 14.0935C24.4211 14.0209 24.4704 13.9991 24.5367 14.0209C24.624 14.0491 24.7297 14.0456 24.7628 14.1534Z" fill="#DEF2E5"/>
<path fill-rule="evenodd" clip-rule="evenodd" d="M18.1808 13.2863C18.2499 13.2947 18.3591 13.2581 18.352 13.3757C18.345 13.4786 18.2407 13.4624 18.166 13.4638C18.1061 13.4659 18.0202 13.4969 18.0145 13.3891C18.0103 13.2609 18.1104 13.3011 18.1808 13.2863Z" fill="#F3FAF5"/>
<path fill-rule="evenodd" clip-rule="evenodd" d="M17.2899 13.3846C17.4175 13.3931 17.4809 13.4692 17.4858 13.589C17.4929 13.6961 17.44 13.7876 17.3301 13.7975C17.2033 13.8095 17.1462 13.713 17.1392 13.5953C17.1321 13.4868 17.1744 13.4079 17.2899 13.3846Z" fill="#F3FAF6"/>
<path fill-rule="evenodd" clip-rule="evenodd" d="M30.264 17.1864C30.2457 17.3034 30.1753 17.3858 30.0393 17.3858C29.9301 17.3844 29.8892 17.3048 29.9005 17.2083C29.9111 17.0772 29.9893 16.9927 30.1224 16.9948C30.2274 16.9976 30.2683 17.073 30.264 17.1864Z" fill="#F9FCFA"/>
<path fill-rule="evenodd" clip-rule="evenodd" d="M23.6518 13.7726C23.7229 13.8163 23.866 13.7712 23.8864 13.9121C23.8927 13.9657 23.8336 13.9931 23.7864 13.9826C23.6941 13.9621 23.5651 13.9953 23.5539 13.8466C23.5517 13.8008 23.5722 13.7515 23.6518 13.7726Z" fill="#E7F5EC"/>
<path fill-rule="evenodd" clip-rule="evenodd" d="M25.5824 14.54C25.569 14.6619 25.5091 14.7471 25.3858 14.7471C25.2646 14.7485 25.2217 14.664 25.2273 14.5526C25.2372 14.4301 25.3069 14.3483 25.426 14.3434C25.5443 14.3392 25.5824 14.4336 25.5824 14.54Z" fill="#F5FBF7"/>
</svg>
