<?xml version="1.0" encoding="UTF-8"?>
<!DOCTYPE svg PUBLIC "-//W3C//DTD SVG 1.1//EN" "http://www.w3.org/Graphics/SVG/1.1/DTD/svg11.dtd">
<!-- Creator: CorelDRAW 2021 (64 Bit) -->
<svg xmlns="http://www.w3.org/2000/svg" xml:space="preserve" width="84.6666mm" height="84.6666mm" version="1.1" style="shape-rendering:geometricPrecision; text-rendering:geometricPrecision; image-rendering:optimizeQuality; fill-rule:evenodd; clip-rule:evenodd"
viewBox="0 0 8466.66 8466.66"
 xmlns:xlink="http://www.w3.org/1999/xlink"
 xmlns:xodm="http://www.corel.com/coreldraw/odm/2003">
 <defs>
  <style type="text/css">
   <![CDATA[
    .fil0 {fill:black}
   ]]>
  </style>
 </defs>
 <g id="Camada_x0020_1">
  <metadata id="CorelCorpID_0Corel-Layer"/>
  <g id="_2776864524832">
   <path class="fil0" d="M5900.76 1604.01c0,92.45 98.62,340.71 135.81,428.25 81.52,191.87 86.85,401.43 86.85,610.81 0,222.9 -163.43,500.37 -301.18,663.65 -18.9,22.4 -37.36,40.02 -58.71,60.03 -15.68,14.67 -14.5,13.41 -31.46,27.93 -3.28,2.8 -12.8,10.8 -16.11,13.57 -38.59,32.45 22.21,-19.1 -16.25,13.44 -49.32,41.73 -78.65,67.45 -131.73,105.75 -211.25,152.43 -575.42,318.96 -828.98,373.36l-400.85 88.99c-375.48,62.47 -670.43,49.51 -1035.11,33.84l-507.78 -56.29c-82.39,-19.27 -158.17,-19.78 -242.41,-39.63l-897.35 -215.9c2.07,92.62 305.5,842.63 368.68,1011.76 8.36,22.35 8.38,25.44 15.8,43.58 16.41,40.24 9.01,16.92 23.79,50.43 17.27,39.13 15.34,49.68 29.06,89.67l603.61 1578.43c20.11,55.03 47.32,142.71 72.33,194.83 84.7,0 713.58,-126.97 807.06,-157.77 49.43,-16.27 88.94,-22.34 132.19,-31.09 259.3,-52.47 827.45,-264.5 1089.26,-380.24l637.31 -342.36c258.56,-169.13 325.15,-216.49 560.65,-419.03l40.5 -33.72c309.23,-260.62 704.4,-835.3 815.11,-1233.32 15.27,-54.95 16.2,-70.87 39.41,-123.87 93.62,-213.8 77.46,-659.28 38.59,-859.78 -57.91,-298.67 -79.35,-359.87 -197.18,-619.2l-179.79 -310.05c-216.13,-313.12 -250.11,-312.93 -482.41,-571.5 -41.64,-46.36 -36.01,-83.63 -168.71,-83.63l0 89.06z"/>
   <path class="fil0" d="M1507.06 2212.61c0,598.89 35.47,693.63 135.29,1185.78 45.99,226.83 -4.9,157.65 556.1,260.3 59.04,10.8 118.02,16.88 177.68,30.13l1217.87 221.96c62.16,13.29 118.21,16.41 181.75,26.61 47.81,7.66 140.85,41.31 131.82,-40.27l-282.33 -744.91c-101.12,-254.32 -247.88,-934.24 -247.88,-1206.79 0,-274.46 17.37,-424.18 106.78,-635.38 10.66,-25.16 31.52,-69.04 50.28,-98.18 320.01,-497.33 1136.22,-504.53 1709.67,-420.68l374.64 55.81c61.55,0 125.02,-33.75 163.29,-59.37 -29.68,-111.11 -139.76,-140.11 -243.67,-186.8 -502.54,-225.81 -851.75,-356.98 -1424.67,-460.45l-513.56 -51.48 -414.53 31.96c-394.29,81.63 -724.38,146.55 -1058.87,484.86l-293.78 374.2c-52.31,86.96 -114.22,190.38 -153.33,291.96l-105.79 339.52c-37.22,147.93 -66.76,455.92 -66.76,601.22z"/>
   <path class="fil0" d="M3674.22 2019.64c0,270.2 191.52,628.37 406.83,795.5 240.06,186.33 513.23,347.45 840.04,347.45 343.34,0 723.57,-188.66 785,-491.54 43.95,-216.68 53.7,-268.06 -15.99,-485.28 -63.06,-196.59 -218.23,-387.54 -372.55,-518.07 -47.86,-40.48 -118.34,-92.97 -170.71,-126.16 -33.61,-21.26 -64.69,-37.81 -94.62,-53.82 -366.71,-195.93 -814.31,-257.86 -1155.54,27.04 -2.36,1.98 -5.78,4.71 -8.15,6.69l-39.62 34.59c-64.78,66.99 -132.16,198.03 -151.7,293.61 -13.05,63.81 -22.99,98.93 -22.99,169.99z"/>
  </g>
 </g>
</svg>
